<svg width="110" height="24" viewBox="0 0 110 24" fill="none" xmlns="http://www.w3.org/2000/svg">
<path d="M8.48 19.12C7.09333 19.12 5.84 18.8133 4.72 18.2C3.61333 17.5867 2.74 16.74 2.1 15.66C1.47333 14.5667 1.16 13.3467 1.16 12C1.16 10.6533 1.47333 9.44 2.1 8.36C2.74 7.26667 3.62 6.41333 4.74 5.8C5.86 5.18667 7.11333 4.88 8.5 4.88C9.54 4.88 10.5 5.05333 11.38 5.4C12.26 5.74667 13.0067 6.25333 13.62 6.92L12.68 7.86C11.5867 6.75333 10.2067 6.2 8.54 6.2C7.43333 6.2 6.42667 6.45333 5.52 6.96C4.61333 7.46667 3.9 8.16 3.38 9.04C2.87333 9.92 2.62 10.9067 2.62 12C2.62 13.0933 2.87333 14.08 3.38 14.96C3.9 15.84 4.61333 16.5333 5.52 17.04C6.42667 17.5467 7.43333 17.8 8.54 17.8C10.22 17.8 11.6 17.24 12.68 16.12L13.62 17.06C13.0067 17.7267 12.2533 18.24 11.36 18.6C10.48 18.9467 9.52 19.12 8.48 19.12ZM27.6234 5V14.94C27.6234 16.94 27.1034 18.4667 26.0634 19.52C25.0234 20.5733 23.5834 21.1 21.7434 21.1C20.5968 21.1 19.5634 20.9133 18.6434 20.54C17.7368 20.18 16.9768 19.6533 16.3634 18.96L17.0434 17.82C18.2301 19.1267 19.7968 19.78 21.7434 19.78C23.1834 19.78 24.2768 19.38 25.0234 18.58C25.7701 17.78 26.1434 16.58 26.1434 14.98V13.1C25.2368 14.6867 23.7234 15.48 21.6034 15.48C19.8701 15.48 18.5168 14.9867 17.5434 14C16.5701 13 16.0834 11.5667 16.0834 9.7V5H17.5634V9.64C17.5634 11.12 17.9301 12.2467 18.6634 13.02C19.3968 13.78 20.4234 14.16 21.7434 14.16C23.1301 14.16 24.2101 13.76 24.9834 12.96C25.7568 12.1467 26.1434 10.9333 26.1434 9.32V5H27.6234ZM49.3052 5V19H32.1452V5H33.6052V17.72H40.0052V5H41.4652V17.72H47.8452V5H49.3052ZM65.2802 5V19H63.8602V16.64C62.9402 18.2933 61.3735 19.12 59.1602 19.12C57.4935 19.12 56.1868 18.62 55.2402 17.62C54.2935 16.62 53.8202 15.1933 53.8202 13.34V5H55.3002V13.3C55.3002 14.78 55.6602 15.9 56.3802 16.66C57.1135 17.42 58.1335 17.8 59.4402 17.8C60.8135 17.8 61.8802 17.4 62.6402 16.6C63.4135 15.7867 63.8002 14.5733 63.8002 12.96V5H65.2802ZM91.7417 19.12C90.3551 19.12 89.1017 18.8133 87.9817 18.2C86.8751 17.5867 86.0017 16.74 85.3617 15.66C84.7351 14.5667 84.4217 13.3467 84.4217 12C84.4217 10.6533 84.7351 9.44 85.3617 8.36C86.0017 7.26667 86.8817 6.41333 88.0017 5.8C89.1217 5.18667 90.3751 4.88 91.7617 4.88C92.8017 4.88 93.7617 5.05333 94.6417 5.4C95.5217 5.74667 96.2684 6.25333 96.8817 6.92L95.9417 7.86C94.8484 6.75333 93.4684 6.2 91.8017 6.2C90.6951 6.2 89.6884 6.45333 88.7817 6.96C87.8751 7.46667 87.1617 8.16 86.6417 9.04C86.1351 9.92 85.8817 10.9067 85.8817 12C85.8817 13.0933 86.1351 14.08 86.6417 14.96C87.1617 15.84 87.8751 16.5333 88.7817 17.04C89.6884 17.5467 90.6951 17.8 91.8017 17.8C93.4817 17.8 94.8617 17.24 95.9417 16.12L96.8817 17.06C96.2684 17.7267 95.5151 18.24 94.6217 18.6C93.7417 18.9467 92.7817 19.12 91.7417 19.12ZM108.998 7.58C107.625 6.78 106.105 6.32 104.438 6.2V19H102.958V6.2C101.318 6.30667 99.7915 6.76667 98.3781 7.58L97.8381 6.42C99.5715 5.39333 101.518 4.88 103.678 4.88C105.878 4.88 107.831 5.39333 109.538 6.42L108.998 7.58Z" fill="#303030"/>
<circle cx="76" cy="6" r="5" fill="#FF9B26"/>
</svg>
